<svg width="20" height="20" viewBox="0 0 20 20" fill="none" xmlns="http://www.w3.org/2000/svg">
<g clip-path="url(#clip0)">
<path d="M18.9736 4.43482L16.2526 3.22495L7.66268 7.26328V9.85651L6.16418 9.19021V6.59697L14.7541 2.55867L11.869 1.2758C11.4826 1.10403 10.8505 1.10403 10.4641 1.2758L3.35954 4.43482C2.79356 4.68648 2.33167 5.3992 2.3331 6.01861L2.34418 10.6996C2.78954 10.5563 3.2634 10.4772 3.75578 10.4772C6.30314 10.4772 8.37582 12.5498 8.37582 15.0975C8.37582 15.7629 8.2316 16.3943 7.97725 16.9664L10.4859 18.0388C10.8596 18.1985 11.471 18.1985 11.8448 18.0388L18.9332 15.0096C19.5088 14.7636 19.981 14.0502 19.9825 13.4242L20 6.01857C20.0014 5.39916 19.5396 4.68645 18.9736 4.43482ZM16.2306 9.80923L17.1932 7.77821C17.2904 7.57322 17.5341 7.45495 17.6316 7.56612L18.6194 8.6923C18.7181 8.80475 18.5929 9.06083 18.395 9.15266L17.9791 9.34557L17.9708 12.2713C17.9704 12.3992 17.8575 12.5514 17.7189 12.6112L17.0963 12.8799C16.9599 12.9388 16.8495 12.8842 16.8494 12.758L16.8473 9.87063L16.4445 10.0575C16.2551 10.1454 16.1365 10.0076 16.2306 9.80923ZM12.681 11.4688L13.5559 9.53815C13.6442 9.34341 13.8698 9.23384 13.9619 9.34168L14.8943 10.4339C14.9874 10.543 14.8738 10.7862 14.6905 10.8712L14.3055 11.0498L14.3303 13.8514C14.3314 13.9739 14.2278 14.1181 14.0994 14.1736L13.5221 14.4228C13.3956 14.4774 13.292 14.4236 13.2905 14.3027L13.2567 11.5365L12.8832 11.7097C12.7076 11.7912 12.5955 11.6575 12.681 11.4688ZM19.0821 13.0482C19.0816 13.1124 19.0239 13.1886 18.9531 13.2183L12.3599 15.9882C12.2984 16.014 12.2478 15.987 12.2469 15.9277L12.2418 15.6054C12.2409 15.5461 12.2901 15.4766 12.3517 15.4504L18.9566 12.6367C19.0275 12.6065 19.0847 12.6343 19.0843 12.6987L19.0821 13.0482ZM3.75572 11.3417C1.6815 11.3417 0 13.0232 0 15.0974C0 17.1717 1.6815 18.8532 3.75572 18.8532C5.82993 18.8532 7.51144 17.1717 7.51144 15.0974C7.51147 13.0232 5.82993 11.3417 3.75572 11.3417ZM6.20984 14.3258L3.89859 16.9259C3.78474 17.054 3.62621 17.1198 3.46654 17.1198C3.33971 17.1198 3.21219 17.0782 3.10582 16.9931L1.66131 15.8375C1.41216 15.6383 1.3717 15.2746 1.57114 15.0255C1.77033 14.7761 2.13415 14.7357 2.38327 14.9352L3.39938 15.748L5.34624 13.5578C5.55797 13.3194 5.92333 13.2977 6.16186 13.5098C6.40042 13.7221 6.42186 14.0871 6.20984 14.3258Z" fill="#FDB53C"/>
</g>
<defs>
<clipPath id="clip0">
<rect width="20" height="20" fill="white"/>
</clipPath>
</defs>
</svg>
