<svg width="20" height="20" viewBox="0 0 20 20" fill="none" xmlns="http://www.w3.org/2000/svg">
<g clip-path="url(#clip0)">
<path d="M1.31123 3.45014C0.938029 2.319 1.5546 1.09499 2.68587 0.721722C3.81714 0.348456 5.0411 0.965218 5.4143 2.09636L9.65929 14.9621C9.2637 14.8577 8.84298 14.8386 8.42299 14.9154L4.31329 2.45966C4.14034 1.93547 3.57332 1.64982 3.04917 1.82276C2.52499 1.9957 2.23933 2.56273 2.41228 3.08687C2.51257 3.39089 2.34744 3.71873 2.04339 3.81903C1.73937 3.91932 1.41156 3.75416 1.31123 3.45014ZM18.0364 13.5429L11.0813 15.8377C11.3281 16.118 11.5238 16.4511 11.648 16.8275C11.6524 16.841 11.6549 16.8545 11.6591 16.868L18.3997 14.6439C18.7038 14.5437 18.8689 14.2158 18.7686 13.9118C18.6683 13.6077 18.3404 13.4426 18.0364 13.5429ZM11.0975 17.0093C11.4916 18.2036 10.8428 19.4913 9.64851 19.8854C8.45416 20.2794 7.16652 19.6307 6.77243 18.4363C6.37835 17.242 7.02714 15.9544 8.22145 15.5603C9.41579 15.1662 10.7035 15.815 11.0975 17.0093ZM10.0162 17.366C9.81922 16.7689 9.17544 16.4445 8.57821 16.6416C7.98106 16.8385 7.65668 17.4824 7.8537 18.0796C8.05073 18.6767 8.69455 19.0011 9.29174 18.8041C9.8889 18.607 10.2133 17.9632 10.0162 17.366ZM16.2787 4.81589L18.64 11.9726C18.6902 12.1246 18.6076 12.2885 18.4556 12.3387L11.0236 14.7908C10.8716 14.841 10.7077 14.7584 10.6575 14.6064L8.29622 7.44963C8.24606 7.29761 8.32864 7.13372 8.48067 7.08356L15.9126 4.63141C16.0647 4.58131 16.2286 4.66386 16.2787 4.81589ZM15.2956 8.97319L12.765 7.58087L11.5603 10.2057L12.3579 10.5728L12.8788 9.43724L13.8193 12.2879L14.7195 11.991L13.7791 9.14067L14.8731 9.74286L15.2956 8.97319ZM13.0874 4.70357L11.5777 0.128032C11.5457 0.0308427 11.4409 -0.0219675 11.3437 0.0101238L10.0492 0.437213L10.0429 0.448847L10.032 0.4429L9.34903 0.668258L9.91145 2.37279L9.14109 2.62697L8.5787 0.92244L7.8955 1.14786L7.89034 1.15911L7.87825 1.15355L6.59217 1.57789C6.49495 1.60995 6.4422 1.71476 6.47426 1.81195L7.98397 6.38751C8.01603 6.4847 8.12083 6.53751 8.21802 6.50542L12.9696 4.93765C13.0667 4.90556 13.1195 4.80076 13.0874 4.70357Z" fill="#FDB53C"/>
</g>
<defs>
<clipPath id="clip0">
<rect width="20" height="20" fill="white"/>
</clipPath>
</defs>
</svg>
