<svg width="20" height="20" viewBox="0 0 20 20" fill="none" xmlns="http://www.w3.org/2000/svg">
<g clip-path="url(#clip0)">
<path d="M1.35596 14.8897V18.1317C1.35596 18.3289 1.51621 18.4933 1.71754 18.4933H4.22401C4.42124 18.4933 4.58559 18.333 4.58559 18.1317V12.4285L2.76533 14.2487C2.37909 14.6309 1.88601 14.8527 1.35596 14.8897Z" fill="#FDB53C"/>
<path d="M5.83472 12.3872V18.1315C5.83472 18.3288 5.99497 18.4931 6.1963 18.4931H8.70277C8.9 18.4931 9.06435 18.3329 9.06435 18.1315V14.7499C8.49321 14.7375 7.95905 14.5115 7.55637 14.1089L5.83472 12.3872Z" fill="#FDB53C"/>
<path d="M10.3135 14.3925V18.1316C10.3135 18.3288 10.4737 18.4932 10.6751 18.4932H13.1815C13.3787 18.4932 13.5431 18.3329 13.5431 18.1316V11.2327L10.671 14.1048C10.56 14.2158 10.4409 14.3103 10.3135 14.3925Z" fill="#FDB53C"/>
<path d="M17.7794 6.99219L14.7922 9.9794V18.1316C14.7922 18.3288 14.9525 18.4931 15.1538 18.4931H17.6603C17.8575 18.4931 18.0219 18.3329 18.0219 18.1316V7.21818C17.9397 7.14833 17.8781 7.08669 17.8329 7.0456L17.7794 6.99219Z" fill="#FDB53C"/>
<path d="M19.8298 1.69996C19.7106 1.57258 19.5298 1.50684 19.2997 1.50684C19.2792 1.50684 19.2545 1.50684 19.234 1.50684C18.067 1.56025 16.9042 1.61778 15.7373 1.67119C15.5811 1.67941 15.3675 1.68763 15.199 1.8561C15.1456 1.90951 15.1045 1.97115 15.0716 2.04511C14.899 2.41902 15.1415 2.66145 15.2565 2.7765L15.5483 3.07235C15.7496 3.27779 15.955 3.48324 16.1605 3.68458L9.10954 10.7397L5.94154 7.57165C5.75253 7.38264 5.49777 7.27581 5.22658 7.27581C4.95539 7.27581 4.70474 7.38264 4.51573 7.57165L0.295844 11.7874C-0.0986147 12.1819 -0.0986147 12.8188 0.295844 13.2132L0.484856 13.4023C0.673867 13.5913 0.928622 13.6981 1.19981 13.6981C1.471 13.6981 1.72165 13.5913 1.91066 13.4023L5.22658 10.0863L8.39458 13.2543C8.58359 13.4433 8.83834 13.5502 9.10954 13.5502C9.38072 13.5502 9.63137 13.4433 9.82449 13.2543L17.7794 5.2994L18.6793 6.19515C18.7861 6.30198 18.934 6.44991 19.16 6.44991C19.2545 6.44991 19.349 6.42525 19.4476 6.37184C19.5134 6.33486 19.5709 6.29377 19.6202 6.24446C19.7969 6.06777 19.8298 5.84178 19.838 5.6651C19.8709 4.90905 19.9078 4.153 19.9448 3.39285L19.9982 2.25467C20.0106 2.01635 19.9572 1.83144 19.8298 1.69996Z" fill="#FDB53C"/>
</g>
<defs>
<clipPath id="clip0">
<rect width="20" height="20" fill="white"/>
</clipPath>
</defs>
</svg>
