<svg width="20" height="20" viewBox="0 0 20 20" fill="none" xmlns="http://www.w3.org/2000/svg">
<g clip-path="url(#clip0)">
<path d="M8.14083 9.13737C8.60255 9.13737 8.97685 8.76307 8.97685 8.30135C8.97685 7.83963 8.60255 7.46533 8.14083 7.46533C7.67911 7.46533 7.30481 7.83963 7.30481 8.30135C7.30481 8.76307 7.67911 9.13737 8.14083 9.13737Z" fill="#FDB53C"/>
<path d="M13.4519 12.5304C13.9136 12.5304 14.2879 12.1561 14.2879 11.6944C14.2879 11.2327 13.9136 10.8584 13.4519 10.8584C12.9901 10.8584 12.6158 11.2327 12.6158 11.6944C12.6158 12.1561 12.9901 12.5304 13.4519 12.5304Z" fill="#FDB53C"/>
<path d="M20.345 11.1042L20.0417 10.6903C19.7139 10.2395 19.7057 9.62887 20.0294 9.16988L20.3245 8.75187C20.7753 8.11256 20.5663 7.22326 19.8737 6.85033L19.4229 6.60854C18.9311 6.34626 18.6606 5.79711 18.7549 5.24386L18.841 4.73979C18.9721 3.96934 18.3943 3.25627 17.6115 3.22348L17.0993 3.20299C16.5419 3.1784 16.0583 2.80138 15.9026 2.26452L15.7592 1.77274C15.542 1.01869 14.7141 0.629365 13.9929 0.940823L13.5216 1.14163C13.0093 1.36293 12.411 1.23179 12.0381 0.813781L11.6979 0.432655C11.1775 -0.14928 10.2636 -0.145182 9.7472 0.449047L9.41116 0.834272C9.04232 1.25638 8.44809 1.39572 7.93173 1.18261L7.45635 0.985903C6.73098 0.686739 5.91135 1.09245 5.70234 1.84651L5.56711 2.34239C5.41957 2.88334 4.94419 3.26856 4.38684 3.29725L3.87458 3.32594C3.09183 3.37102 2.52629 4.09229 2.66973 4.86274L2.76398 5.36681C2.86644 5.91596 2.60416 6.46921 2.11648 6.73968L1.66978 6.98967C0.985392 7.3708 0.788682 8.26419 1.25177 8.8953L1.55503 9.30921C1.88288 9.76001 1.89108 10.3706 1.56733 10.8296L1.27226 11.2476C0.821467 11.8869 1.03047 12.7762 1.72306 13.1492L2.17385 13.391C2.66563 13.6532 2.9361 14.2024 2.84185 14.7556L2.75579 15.2597C2.62465 16.0302 3.20248 16.7432 3.98523 16.776L4.49749 16.7965C5.05484 16.8211 5.53842 17.1981 5.69415 17.735L5.83758 18.2268C6.05478 18.9808 6.88261 19.3701 7.60388 19.0587L8.07516 18.8579C8.58743 18.6366 9.18576 18.7677 9.55869 19.1857L9.89883 19.5668C10.4234 20.1488 11.3373 20.1447 11.8495 19.5504L12.1856 19.1652C12.5544 18.7431 13.1487 18.6038 13.665 18.8169L14.1404 19.0136C14.8658 19.3128 15.6854 18.907 15.8944 18.153L16.0296 17.6571C16.1772 17.1162 16.6526 16.7309 17.2099 16.7022L17.7222 16.6736C18.5049 16.6285 19.0705 15.9072 18.927 15.1368L18.8328 14.6327C18.7303 14.0835 18.9926 13.5303 19.4803 13.2598L19.927 13.0098C20.6114 12.6328 20.8081 11.7394 20.345 11.1042ZM6.12035 8.30107C6.12035 7.18638 7.02194 6.28479 8.13664 6.28479C9.25133 6.28479 10.1529 7.18638 10.1529 8.30107C10.1529 9.41576 9.25133 10.3174 8.13664 10.3174C7.02194 10.3174 6.12035 9.41167 6.12035 8.30107ZM8.52596 13.5016C8.35384 13.7106 8.04238 13.7393 7.83337 13.5672C7.62437 13.3951 7.59568 13.0836 7.7678 12.8746L13.0585 6.50199C13.2306 6.29299 13.5421 6.2643 13.7511 6.43642C13.9601 6.60854 13.9888 6.92 13.8167 7.12901L8.52596 13.5016ZM13.4519 13.7106C12.3372 13.7106 11.4356 12.809 11.4356 11.6943C11.4356 10.5796 12.3372 9.67804 13.4519 9.67804C14.5666 9.67804 15.4682 10.5796 15.4682 11.6943C15.4682 12.809 14.5666 13.7106 13.4519 13.7106Z" fill="#FDB53C"/>
</g>
<defs>
<clipPath id="clip0">
<rect width="20" height="20" fill="white"/>
</clipPath>
</defs>
</svg>
