<svg width="20" height="20" viewBox="0 0 20 20" fill="none" xmlns="http://www.w3.org/2000/svg">
<g clip-path="url(#clip0)">
<path d="M2.0015 13.4378C0.976144 13.4378 0.144935 14.2689 0.144935 15.2943C0.144935 16.3196 0.976177 17.1508 2.0015 17.1508C3.02683 17.1508 3.85804 16.3196 3.85804 15.2943C3.85804 14.2689 3.02683 13.4378 2.0015 13.4378ZM2.0015 16.2226C1.48882 16.2226 1.07324 15.807 1.07324 15.2943C1.07324 14.7817 1.48886 14.366 2.0015 14.366C2.51415 14.366 2.92977 14.7817 2.92977 15.2943C2.92977 15.807 2.51418 16.2226 2.0015 16.2226ZM16.2859 11.6396L13.7605 13.2032C13.7138 13.095 13.6874 12.9761 13.6874 12.8508V10.3913C13.6874 10.2774 13.7108 10.1694 13.7497 10.0692L16.2859 11.6396ZM14.0724 9.65875C14.2163 9.55904 14.3904 9.49989 14.5788 9.49989H19.1086C19.2691 9.49989 19.4176 9.54568 19.5477 9.61992L16.7787 11.3344L14.0724 9.65875ZM17.2715 11.6396L19.9093 10.0063C19.9657 10.1233 20 10.2528 20 10.3913V12.8507C20 13.0005 19.9595 13.1396 19.8942 13.2635L17.2715 11.6396ZM13.2334 14.192H17.9596V15.1372H13.4296C13.3766 14.35 12.932 13.67 12.2882 13.2896V13.288C12.292 13.2902 12.2962 13.2918 12.3 13.294L12.2882 13.2707V3.79432H13.2334V14.192ZM19.5158 13.6394C19.3932 13.7028 19.2562 13.7421 19.1086 13.7421H14.5787C14.4031 13.7421 14.2404 13.6896 14.1023 13.6018L16.7787 11.9447L19.5158 13.6394ZM16.2859 6.89062L13.7605 8.45431C13.7138 8.3461 13.6874 8.22712 13.6874 8.10182V5.64238C13.6874 5.52846 13.7108 5.42046 13.7497 5.32032L16.2859 6.89062ZM14.0724 4.90984C14.2163 4.81013 14.3904 4.75101 14.5788 4.75101H19.1086C19.2691 4.75101 19.4176 4.79676 19.5477 4.87101L16.7787 6.58549L14.0724 4.90984ZM17.2715 6.89062L19.9093 5.25735C19.9657 5.37434 20 5.50382 20 5.64238V8.10182C20 8.25163 19.9595 8.39065 19.8942 8.51453L17.2715 6.89062ZM19.5158 8.89048C19.3932 8.95391 19.2562 8.99319 19.1086 8.99319H14.5787C14.4031 8.99319 14.2404 8.94061 14.1023 8.85287L16.7787 7.19575L19.5158 8.89048ZM7.39804 3.62579C7.15647 3.14935 6.66765 2.84912 6.13343 2.84912H3.07206C2.55 2.84912 2.1268 3.27232 2.1268 3.79438V8.75692H1.18154C0.52902 8.75685 0 9.28584 0 9.93839V14.1046C0.406471 13.4216 1.15085 12.9655 2.00157 12.9655C3.23275 12.9655 4.24418 13.9249 4.32686 15.1372H8.78366C8.86637 13.9249 9.87543 12.9655 11.109 12.9655C11.539 12.9655 11.9432 13.0842 12.2882 13.288V13.2707L7.39804 3.62579ZM9.18778 10.6568H3.84242C3.71007 10.6568 3.60614 10.5505 3.60614 10.4205V4.54582C3.60614 4.41585 3.71013 4.30954 3.84242 4.30954H6.17007C6.25987 4.30954 6.34023 4.35918 6.38039 4.43712L9.3981 10.3119C9.47843 10.4701 9.365 10.6568 9.18778 10.6568ZM11.1083 13.4378C10.083 13.4378 9.25177 14.2689 9.25177 15.2943C9.25177 16.3196 10.083 17.1508 11.1083 17.1508C12.1337 17.1508 12.9649 16.3196 12.9649 15.2943C12.9649 14.2689 12.1337 13.4378 11.1083 13.4378ZM11.1083 16.2226C10.5957 16.2226 10.1801 15.807 10.1801 15.2943C10.1801 14.7817 10.5957 14.366 11.1083 14.366C11.621 14.366 12.0366 14.7817 12.0366 15.2943C12.0366 15.807 11.621 16.2226 11.1083 16.2226Z" fill="#FDB53C"/>
</g>
<defs>
<clipPath id="clip0">
<rect width="20" height="20" fill="white"/>
</clipPath>
</defs>
</svg>
