<svg width="20" height="20" viewBox="0 0 20 20" fill="none" xmlns="http://www.w3.org/2000/svg">
<g clip-path="url(#clip0)">
<path d="M19.5988 5.55194L10.4112 1.79918C10.0961 1.67049 9.74296 1.67147 9.42861 1.80196L0.39781 5.55067C0.156961 5.65067 0 5.88577 0 6.14655V7.49001C0 7.84635 0.288856 8.13517 0.645162 8.13517H1.12905C1.21814 8.13517 1.29036 8.20736 1.29036 8.29648V16.8449C1.29036 17.6466 1.94026 18.2965 2.74199 18.2965H3.16359V10.5403H16.8364V18.2965H17.258C18.0597 18.2965 18.7097 17.6466 18.7097 16.8448V8.29648C18.7097 8.20739 18.7819 8.13517 18.871 8.13517H19.3549C19.7112 8.13517 20 7.84632 20 7.49001V6.1492C20 5.88711 19.8414 5.65106 19.5988 5.55194ZM6.45162 8.13517H3.22581V6.68354H6.45159L6.45162 8.13517ZM11.6129 8.13517H8.38708V6.68354H11.6129V8.13517ZM16.7742 8.13517H13.5483V6.68354H16.7742L16.7742 8.13517ZM7.29081 15.0718H6.37274V16.3383H5.94385V15.0718H5.02012C4.68627 15.0718 4.41565 15.3424 4.41565 15.6763V17.692C4.41565 18.0258 4.6863 18.2964 5.02012 18.2964H7.29077C7.62463 18.2964 7.89525 18.0258 7.89525 17.692V15.6763C7.89528 15.3424 7.62463 15.0718 7.29081 15.0718ZM11.1365 15.0718H10.2184V16.3383H9.78953V15.0718H8.86584C8.53198 15.0718 8.26136 15.3424 8.26136 15.6763V17.692C8.26136 18.0258 8.53201 18.2964 8.86584 18.2964H11.1365C11.4703 18.2964 11.7409 18.0258 11.7409 17.692V15.6763C11.741 15.3424 11.4703 15.0718 11.1365 15.0718ZM15.0536 15.0718H14.1356V16.3383H13.7067V15.0718H12.783C12.4491 15.0718 12.1785 15.3424 12.1785 15.6763V17.692C12.1785 18.0258 12.4491 18.2964 12.783 18.2964H15.0536C15.3875 18.2964 15.6581 18.0258 15.6581 17.692V15.6763C15.6581 15.3424 15.3875 15.0718 15.0536 15.0718ZM9.22162 11.4344H8.30355V12.701H7.87466V11.4344H6.95097C6.61711 11.4344 6.34649 11.7051 6.34649 12.0389V14.0546C6.34649 14.3884 6.61715 14.659 6.95097 14.659H9.22162C9.55548 14.659 9.8261 14.3884 9.8261 14.0546V12.0389C9.82613 11.7051 9.55544 11.4344 9.22162 11.4344ZM13.1612 11.4344H12.2431V12.701H11.8142V11.4344H10.8905C10.5567 11.4344 10.286 11.7051 10.286 12.0389V14.0546C10.286 14.3884 10.5567 14.659 10.8905 14.659H13.1612C13.495 14.659 13.7656 14.3884 13.7656 14.0546V12.0389C13.7656 11.7051 13.495 11.4344 13.1612 11.4344Z" fill="#FDB53C"/>
</g>
<defs>
<clipPath id="clip0">
<rect width="20" height="20" fill="white"/>
</clipPath>
</defs>
</svg>
