<svg width="20" height="20" viewBox="0 0 20 20" fill="none" xmlns="http://www.w3.org/2000/svg">
<g clip-path="url(#clip0)">
<path d="M19.5853 3.82201L17.3989 1.07901C17.1924 0.819893 16.8791 0.668945 16.5477 0.668945H5.24735C4.91601 0.668945 4.60271 0.819893 4.39617 1.07898L2.2098 3.82201C1.98141 4.10858 1.79451 4.64285 1.79451 5.04619V7.0554C1.96817 6.78219 2.22199 6.57713 2.52637 6.47223C2.5434 6.24262 2.61301 6.01994 2.73206 5.81716C2.9383 5.46586 3.26915 5.21606 3.66349 5.11347C3.80487 5.07655 3.93431 5.05981 4.06372 5.05981C4.58513 5.05981 5.05761 5.32504 5.33428 5.74171C5.41666 5.72736 5.4998 5.71991 5.58326 5.71991C5.83928 5.71991 6.0812 5.7903 6.29195 5.91161L7.50303 5.59661C7.6548 5.557 7.81074 5.5371 7.96702 5.5371C8.80463 5.5371 9.53679 6.10367 9.7478 6.915L12.1212 16.037C12.245 16.5129 12.176 17.0086 11.9272 17.4327C11.6782 17.8569 11.2788 18.1585 10.8028 18.2823L9.74358 18.5578H18.6399C19.3914 18.5578 20.0006 17.9487 20.0006 17.1972L20.0006 5.00932C20.0006 4.64285 19.8137 4.10858 19.5853 3.82201ZM2.92428 3.7988L3.64833 2.89041H8.58839L9.07587 2.08891H4.28722L4.82176 1.41826C4.92562 1.28796 5.08075 1.21322 5.24735 1.21322H16.5477C16.7144 1.21322 16.8695 1.28796 16.9733 1.41826L17.5079 2.08891H12.6339L12.906 2.89041H18.1467L18.8708 3.7988H2.92428ZM3.14513 7.15036L2.83974 7.22981C2.51448 7.31445 2.31938 7.64673 2.40399 7.97199L2.40709 7.98389C2.49173 8.30918 2.82402 8.50425 3.14931 8.41964L5.73924 7.74585C6.06454 7.66124 6.2596 7.32896 6.17499 7.00363L6.17189 6.99174C6.08725 6.66648 5.75496 6.47138 5.4297 6.55599L5.12431 6.63543C4.96114 6.67788 4.79441 6.58001 4.75196 6.41684L4.74934 6.4069C4.65075 6.02795 4.26366 5.80066 3.8847 5.89926L3.86885 5.90337C3.4899 6.00197 3.26265 6.38906 3.36121 6.76801L3.36382 6.77795C3.40621 6.94121 3.30833 7.10791 3.14513 7.15036ZM3.97993 6.29805C4.14421 6.2553 4.31206 6.35386 4.35477 6.51811C4.39751 6.68239 4.29898 6.85023 4.13467 6.89295C3.97039 6.93566 3.80258 6.83713 3.75983 6.67288C3.71712 6.5086 3.81565 6.34076 3.97993 6.29805ZM7.79685 15.6799C7.82535 15.7894 7.75966 15.9013 7.65015 15.9298L3.88222 16.91C3.77271 16.9385 3.66081 16.8727 3.63232 16.7632L3.58072 16.565C3.55222 16.4554 3.61791 16.3435 3.72745 16.3151L7.49535 15.3349C7.60489 15.3064 7.71676 15.3721 7.74525 15.4816L7.79685 15.6799ZM8.2564 11.7492L8.308 11.9475C8.33649 12.057 8.27081 12.1689 8.16127 12.1973L3.00519 13.5387C2.89565 13.5672 2.78379 13.5015 2.75529 13.392L2.70369 13.1937C2.6752 13.0842 2.74088 12.9723 2.85042 12.9438L8.00649 11.6025C8.11604 11.574 8.2279 11.6396 8.2564 11.7492ZM7.69695 10.4126L2.54088 11.7539C2.43134 11.7824 2.31948 11.7167 2.29098 11.6072L2.23938 11.4089C2.21088 11.2994 2.27657 11.1875 2.38611 11.159L7.54218 9.81771C7.65172 9.78921 7.76359 9.8549 7.79208 9.96441L7.84368 10.1627C7.87218 10.2722 7.80649 10.3841 7.69695 10.4126ZM7.58244 14.0418L3.41791 15.1252C3.30836 15.1537 3.1965 15.088 3.168 14.9785L3.1164 14.7802C3.08791 14.6706 3.15359 14.5588 3.26314 14.5303L7.42764 13.4469C7.53718 13.4184 7.64904 13.4841 7.67754 13.5936L7.72914 13.7919C7.75767 13.9015 7.69199 14.0133 7.58244 14.0418ZM11.3309 16.2426L8.9578 7.12033C8.81535 6.57272 8.25591 6.24429 7.70829 6.38674L6.49901 6.70134C6.52761 6.7604 6.55133 6.82275 6.56849 6.88857C6.71297 7.44399 6.38588 8.00114 5.84235 8.14255L3.29049 8.8064C2.76957 8.94193 2.20869 8.67369 2.03382 8.16464C2.00088 8.06876 1.98307 7.97239 1.97797 7.87745L0.767453 8.19239C0.21984 8.33484 -0.108591 8.89428 0.0338595 9.44186L2.40699 18.5642C2.54948 19.1118 3.10889 19.4402 3.6565 19.2977L10.5974 17.4921C11.145 17.3496 11.4734 16.7902 11.3309 16.2426ZM3.39853 18.3062L1.33494 10.3738L8.27581 8.56817L10.3394 16.5006L3.39853 18.3062Z" fill="#FDB53C"/>
</g>
<defs>
<clipPath id="clip0">
<rect width="20" height="20" fill="white"/>
</clipPath>
</defs>
</svg>
